<svg width="56.000000" height="32.000000" viewBox="0 0 56 32" fill="none" xmlns="http://www.w3.org/2000/svg" xmlns:xlink="http://www.w3.org/1999/xlink">
	<desc>
			Created with Pixso.
	</desc>

	<defs/>
	
	<rect id="quill" width="56.000000" height="32.000000" fill="#FFFFFF" fill-opacity="0"/>
	<path id="path" d="M41.77 9.06C41.34 10.38 39.84 11.44 38.41 11.44C36.98 11.44 36.15 10.38 36.57 9.06C36.99 7.75 38.5 6.69 39.93 6.69C41.37 6.69 42.19 7.75 41.77 9.06Z" fill="#2463EB" fill-opacity="1.000000" fill-rule="nonzero"/>
	<path id="path" d="M30.76 24.14C30.37 25.54 30.15 26.44 30.02 27.18L26.01 27.17C26.13 26.54 26.3 25.72 26.58 24.74L26.52 24.74C25.4 26.33 24 27.39 21.68 27.39C18.48 27.39 18.09 25.04 18.9 22.13L21.6 12.6L26.01 12.62L23.47 21.59C22.95 23.4 23.62 23.88 24.52 23.88C25.94 23.88 26.79 22.65 27.31 20.78L29.61 12.63L34.02 12.64L30.76 24.14Z" fill="#2463EB" fill-opacity="1.000000" fill-rule="nonzero"/>
	<path id="polygon" d="M36.24 12.64L40.64 12.64L36.52 27.21L32.12 27.2L36.24 12.64Z" fill="#2463EB" fill-opacity="1.000000" fill-rule="nonzero"/>
	<path id="polygon" d="M44.82 6.26L49.22 6.26L43.29 27.23L38.89 27.21L44.82 6.26Z" fill="#2463EB" fill-opacity="1.000000" fill-rule="nonzero"/>
	<path id="polygon" d="M51.59 6.26L56 6.27L50.06 27.24L45.65 27.23L51.59 6.26Z" fill="#2463EB" fill-opacity="1.000000" fill-rule="nonzero"/>
	<path id="path" d="M11.82 17.3C12.18 17.01 12.25 16.9 12.25 16.9C12.25 16.9 11.87 18.35 10.82 19.43C9.77 20.51 8.76 21.07 8.76 21.07C8.76 21.07 9.46 21.05 10.62 20.34C11.79 19.64 12.04 19.07 12.04 19.07C12.04 19.07 12.11 21.09 10.99 23.01C9.87 24.92 9.08 25.29 9.08 25.29L10.96 30C10.96 30 10.86 29.99 10.7 30.42C10.53 30.85 10.61 31.25 10.61 31.25L8.07 24.83C8.07 24.83 4.69 21.7 6.12 13.78C6.6 11.14 7.47 9.2 8.41 7.78L9.19 8.81L8.9 7.09C10.65 4.81 12.48 4.17 12.48 4.17C12.48 4.17 11.97 4.53 11.78 4.9C11.57 5.28 11.51 5.52 11.51 5.52C11.51 5.52 11.97 5.37 12.3 5.01C12.62 4.65 12.87 4.21 13.49 4.27C14.11 4.32 14.06 4.83 14.58 5.37C15.09 5.91 15.78 5.9 15.27 6.88C15.27 6.89 15.26 6.91 15.26 6.92C15.26 6.92 14.84 7.78 14.71 8.07C14.58 8.36 14.54 8.36 14.54 8.36L13.11 9.41L14.46 8.98C14.46 8.98 13.61 10.83 13.4 11.83C13.19 12.84 13.02 13.65 12.81 13.93C12.6 14.22 11.64 15.08 11.64 15.08C11.64 15.08 12.17 14.92 12.52 14.73C12.87 14.54 12.93 14.45 12.93 14.45C12.93 14.45 12.76 15.35 12.23 16.14C11.69 16.94 10.96 17.74 10.96 17.74C10.96 17.74 11.45 17.59 11.82 17.3ZM18.61 14.22C20.36 6.16 18.81 0.01 12.73 2.28e-5C6.65 -0.02 2.44 6.1 0.68 14.18C-1.08 22.24 0.45 28.39 6.53 28.4C6.81 28.4 7.07 28.39 7.34 28.36L8.79 32L13.74 32L11.45 26.88C14.91 24.59 17.38 19.89 18.61 14.22Z" fill="#2463EB" fill-opacity="1.000000" fill-rule="nonzero"/>
	<path id="path" d="M13.25 4.97C10.6 6.71 8.38 10.71 7.69 15.59C7.23 18.9 7.55 22.04 8.46 24.49C7.9 22.07 7.78 19.18 8.21 16.15C8.9 11.23 10.86 7.11 13.25 4.97Z" fill="#2463EB" fill-opacity="1.000000" fill-rule="nonzero"/>
</svg>
